<?xml version="1.0" standalone="no"?>
<!DOCTYPE svg PUBLIC "-//W3C//DTD SVG 20010904//EN"
 "http://www.w3.org/TR/2001/REC-SVG-20010904/DTD/svg10.dtd">
<svg version="1.0" xmlns="http://www.w3.org/2000/svg"
 width="700.000000pt" height="700.000000pt" viewBox="0 0 700.000000 700.000000"
 preserveAspectRatio="xMidYMid meet">
<metadata>
Created by potrace 1.14, written by Peter Selinger 2001-2017
</metadata>
<g transform="translate(0.000000,700.000000) scale(0.100000,-0.100000)"
fill="#000000" stroke="none">
<path d="M3278 6995 c-1 -1 -39 -5 -83 -9 -44 -3 -96 -8 -115 -11 -19 -2 -55
-6 -80 -9 -37 -4 -184 -32 -275 -51 -11 -3 -33 -7 -50 -11 -145 -29 -426 -125
-620 -212 -155 -69 -440 -225 -500 -274 -5 -5 -53 -39 -105 -75 -89 -63 -115
-83 -144 -108 -6 -6 -36 -30 -66 -55 -378 -310 -729 -775 -931 -1232 -43 -98
-61 -141 -60 -146 1 -1 -5 -15 -12 -30 -23 -43 -83 -227 -116 -352 -53 -199
-92 -415 -108 -601 -15 -166 -8 -610 12 -730 2 -13 6 -46 10 -74 11 -87 16
-118 31 -195 9 -41 18 -86 20 -99 11 -57 33 -90 63 -98 17 -4 421 -8 898 -7
l866 0 18 23 c23 28 24 66 3 106 -65 123 -132 344 -159 525 -10 67 -13 345 -4
410 25 180 44 265 88 389 151 422 456 771 846 969 183 93 373 156 530 177 28
4 61 9 75 13 14 3 717 7 1564 8 846 1 1549 5 1562 8 13 4 30 19 38 34 18 35 8
59 -72 179 -537 799 -1403 1351 -2352 1499 -52 8 -117 17 -145 20 -27 3 -63 8
-80 10 -34 6 -541 14 -547 9z"/>
<path d="M5108 4378 c-67 -13 -73 -56 -24 -161 49 -106 104 -282 131 -422 19
-101 26 -359 13 -485 -14 -141 -54 -294 -120 -470 -23 -61 -98 -202 -146 -274
-252 -382 -628 -649 -1057 -751 -94 -23 -119 -28 -205 -42 -19 -3 -703 -7
-1520 -9 -817 -2 -1515 -3 -1553 -4 -53 0 -71 -4 -87 -20 -36 -36 -26 -70 59
-197 278 -414 658 -775 1101 -1045 188 -114 454 -237 685 -315 91 -31 322 -94
392 -108 304 -58 429 -70 728 -70 190 0 328 7 425 21 583 85 1044 257 1500
560 650 431 1140 1072 1395 1824 17 52 32 98 33 103 0 4 8 33 17 65 10 31 18
64 20 72 2 8 9 38 15 65 6 28 14 59 16 70 10 45 44 254 50 305 3 30 8 66 10
80 9 49 11 527 3 612 -8 84 -18 172 -24 213 -1 11 -6 43 -10 70 -3 28 -9 58
-11 67 -3 10 -7 28 -10 40 -28 151 -37 180 -61 195 -21 14 -125 16 -878 17
-470 1 -869 -2 -887 -6z"/>
<path d="M3375 4125 c-231 -49 -408 -208 -481 -432 -25 -77 -29 -102 -28 -198
1 -91 6 -124 28 -190 15 -44 36 -93 46 -110 11 -16 24 -39 29 -50 16 -36 125
-141 188 -182 34 -22 102 -53 150 -69 158 -52 349 -35 491 43 222 122 348 343
337 592 -15 331 -278 593 -609 606 -50 1 -118 -3 -151 -10z"/>
</g>
</svg>
